<svg xmlns="http://www.w3.org/2000/svg" width="158" viewBox="0 0 158 39" fill="none" class="header-logo__img">
    <path d="M20.1843 18.8926L35.7364 0.182926H33.0778H25.957H23.2978L10.6737 15.3676V0.182926H8.01503H2.65969H0V38.4905H2.65969H8.01503H10.6737V22.8741L22.7818 38.4905H25.4404H33.1325H35.7922L20.1843 18.8926Z" fill="black" class="header-logo__change"/>
    <path d="M157.961 0.00912285H148.546V38.4455H157.961V0.00912285Z" fill="black" class="header-logo__change"/>
    <path d="M58.2157 17.0665C61.3786 10.8561 64.7399 9.8234 65.0124 9.74776L62.2465 0.6094C59.7633 1.0289 58.0698 2.08517 56.9716 3.08779C55.8859 4.02388 55.3838 4.95462 55.3838 4.95462L49.2785 15.8262C52.1388 16.0269 55.1965 16.4212 58.1824 17.1319C58.1931 17.111 58.2055 17.088 58.2157 17.0665Z" fill="#ED1C24"/>
    <path d="M36.5191 38.5436H46.2181C47.4889 36.3448 52.7343 27.2472 56.2179 20.8377C54.0716 19.5191 51.4672 18.384 48.3064 17.5573L36.5191 38.5436Z" fill="#ED1C24"/>
    <path d="M67.4297 -3.8147e-06V18.9827C55.5071 12.6183 36.9348 15.0543 36.9348 15.0543C63.5528 15.0543 67.059 30.402 67.4297 36.2638V38.5061H76.8599V0.000536429H67.4297V-3.8147e-06Z" fill="#ED1C24"/>
    <path d="M137.201 0.114798H137.198H131.359V0.158786C130.317 0.249446 129.175 0.504796 128.019 0.930198C127.496 1.12278 127.002 1.34165 126.535 1.57822C126.417 1.63562 126.305 1.6957 126.195 1.75632C126.105 1.80406 126.019 1.85342 125.933 1.90224C125.862 1.94301 125.791 1.98324 125.724 2.02562C124.221 2.92899 123.133 4.02388 122.685 5.06995L113.527 21.3768V1.66942V0.114265H111.95H111.948H106.117V0.158254C105.074 0.248914 103.933 0.504256 102.776 0.929658C102.439 1.05304 102.116 1.19145 101.8 1.33468C101.761 1.35184 101.725 1.37062 101.685 1.38886C101.584 1.43714 101.48 1.48273 101.381 1.53209C101.024 1.70482 100.694 1.88776 100.391 2.0798C98.9684 2.95153 97.9314 3.99437 97.4744 4.99806L78.6875 38.4503H88.3698C89.9201 35.7665 97.3998 22.7925 100.345 17.0102C101.644 14.461 102.975 12.7883 104.112 11.6934V38.1413L103.938 38.4503H113.619C115.171 35.7665 122.65 22.7925 125.596 17.0102C126.895 14.461 128.226 12.7883 129.362 11.6934V38.4449H138.777V0.114798H137.201Z" fill="black" class="header-logo__change"/>
</svg>